REM DIRINDEX 1\4,1\2\5,1\2\6,1\3\7,1\3\8
REM DIRNAME folder01,folder02,folder03,folder04,folder05,folder06,folder07,folder08
TITLE ""
FILE "092_Day46_Check3_Sentences.mp3" MP3
  TRACK 01 AUDIO
    TITLE "0:"
    INDEX 01 00:00:00
  TRACK 02 AUDIO
    TITLE "4:cjc124_3006"
    INDEX 01 00:00:25
  TRACK 03 AUDIO
    TITLE "0:"
    INDEX 01 00:01:73
  TRACK 04 AUDIO
    TITLE "7:cjc124_3007"
    INDEX 01 00:02:45
  TRACK 05 AUDIO
    TITLE "0:"
    INDEX 01 00:05:57
  TRACK 06 AUDIO
    TITLE "8:cjc124_3008"
    INDEX 01 00:05:71
  TRACK 07 AUDIO
    TITLE "0:"
    INDEX 01 00:08:73
  TRACK 08 AUDIO
    TITLE "7:cjc124_3009"
    INDEX 01 00:09:36
  TRACK 09 AUDIO
    TITLE "0:"
    INDEX 01 00:12:32
  TRACK 10 AUDIO
    TITLE "8:cjc124_3010"
    INDEX 01 00:12:48
  TRACK 11 AUDIO
    TITLE "0:"
    INDEX 01 00:15:27
  TRACK 12 AUDIO
    TITLE "7:cjc124_3011"
    INDEX 01 00:15:64
  TRACK 13 AUDIO
    TITLE "0:"
    INDEX 01 00:18:52
  TRACK 14 AUDIO
    TITLE "8:cjc124_3012"
    INDEX 01 00:18:68
  TRACK 15 AUDIO
    TITLE "0:"
    INDEX 01 00:20:61
  TRACK 16 AUDIO
    TITLE "7:cjc124_3013"
    INDEX 01 00:21:23
  TRACK 17 AUDIO
    TITLE "0:"
    INDEX 01 00:24:02
  TRACK 18 AUDIO
    TITLE "8:cjc124_3014"
    INDEX 01 00:24:18
  TRACK 19 AUDIO
    TITLE "0:"
    INDEX 01 00:26:46
  TRACK 20 AUDIO
    TITLE "7:cjc124_3015"
    INDEX 01 00:27:06
  TRACK 21 AUDIO
    TITLE "0:"
    INDEX 01 00:30:01
  TRACK 22 AUDIO
    TITLE "8:cjc124_3016"
    INDEX 01 00:30:14
  TRACK 23 AUDIO
    TITLE "0:"
    INDEX 01 00:32:47
  TRACK 24 AUDIO
    TITLE "7:cjc124_3017"
    INDEX 01 00:33:07
  TRACK 25 AUDIO
    TITLE "0:"
    INDEX 01 00:36:23
  TRACK 26 AUDIO
    TITLE "8:cjc124_3018"
    INDEX 01 00:36:35
  TRACK 27 AUDIO
    TITLE "0:"
    INDEX 01 00:39:29
  TRACK 28 AUDIO
    TITLE "7:cjc124_3019"
    INDEX 01 00:39:64
  TRACK 29 AUDIO
    TITLE "0:"
    INDEX 01 00:42:70
  TRACK 30 AUDIO
    TITLE "8:cjc124_3020"
    INDEX 01 00:43:11
  TRACK 31 AUDIO
    TITLE "0:"
    INDEX 01 00:45:73
  TRACK 32 AUDIO
    TITLE "7:cjc124_3021"
    INDEX 01 00:46:39
  TRACK 33 AUDIO
    TITLE "0:"
    INDEX 01 00:50:01
  TRACK 34 AUDIO
    TITLE "8:cjc124_3022"
    INDEX 01 00:50:19
  TRACK 35 AUDIO
    TITLE "0:"
    INDEX 01 00:52:65
  TRACK 36 AUDIO
    TITLE "7:cjc124_3023"
    INDEX 01 00:53:33
  TRACK 37 AUDIO
    TITLE "0:"
    INDEX 01 00:57:05
  TRACK 38 AUDIO
    TITLE "8:cjc124_3024"
    INDEX 01 00:57:21
  TRACK 39 AUDIO
    TITLE "0:"
    INDEX 01 01:00:31
  TRACK 40 AUDIO
    TITLE "7:cjc124_3025"
    INDEX 01 01:00:66
  TRACK 41 AUDIO
    TITLE "0:"
    INDEX 01 01:07:08
  TRACK 42 AUDIO
    TITLE "8:cjc124_3026"
    INDEX 01 01:07:21
  TRACK 43 AUDIO
    TITLE "0:"
    INDEX 01 01:12:17
  TRACK 44 AUDIO
    TITLE "7:cjc124_3027"
    INDEX 01 01:12:52
  TRACK 45 AUDIO
    TITLE "0:"
    INDEX 01 01:16:01
  TRACK 46 AUDIO
    TITLE "8:cjc124_3028"
    INDEX 01 01:16:14
  TRACK 47 AUDIO
    TITLE "0:"
    INDEX 01 01:18:70
  TRACK 48 AUDIO
    TITLE "7:cjc124_3029"
    INDEX 01 01:19:32
  TRACK 49 AUDIO
    TITLE "0:"
    INDEX 01 01:22:56
  TRACK 50 AUDIO
    TITLE "8:cjc124_3030"
    INDEX 01 01:22:70
  TRACK 51 AUDIO
    TITLE "0:"
    INDEX 01 01:26:34
  TRACK 52 AUDIO
    TITLE "7:cjc124_3031"
    INDEX 01 01:26:72
  TRACK 53 AUDIO
    TITLE "0:"
    INDEX 01 01:29:19
  TRACK 54 AUDIO
    TITLE "8:cjc124_3032"
    INDEX 01 01:29:35
  TRACK 55 AUDIO
    TITLE "0:"
    INDEX 01 01:31:71
  TRACK 56 AUDIO
    TITLE "7:cjc124_3033"
    INDEX 01 01:32:33
  TRACK 57 AUDIO
    TITLE "0:"
    INDEX 01 01:36:70
  TRACK 58 AUDIO
    TITLE "8:cjc124_3034"
    INDEX 01 01:37:11
  TRACK 59 AUDIO
    TITLE "0:"
    INDEX 01 01:40:23
  TRACK 60 AUDIO
    TITLE "7:cjc124_3035"
    INDEX 01 01:40:60
  TRACK 61 AUDIO
    TITLE "0:"
    INDEX 01 01:45:00
  TRACK 62 AUDIO
    TITLE "8:cjc124_3036"
    INDEX 01 01:45:14
  TRACK 63 AUDIO
    TITLE "0:"
    INDEX 01 01:48:52
  TRACK 64 AUDIO
    TITLE "7:cjc124_3037"
    INDEX 01 01:49:14
  TRACK 65 AUDIO
    TITLE "0:"
    INDEX 01 01:52:44
  TRACK 66 AUDIO
    TITLE "8:cjc124_3038"
    INDEX 01 01:52:57
  TRACK 67 AUDIO
    TITLE "0:"
    INDEX 01 01:56:34
